<svg width="200" height="200" viewBox="0 0 200 200" fill="none" xmlns="http://www.w3.org/2000/svg">
<g clip-path="url(#clip0)">
<path d="M200 100C200.018 113.537 197.278 126.936 191.947 139.379L191.615 140.142C182.598 160.657 166.962 177.555 147.207 188.134C127.453 198.714 104.721 202.364 82.6479 198.5C82.0473 198.393 81.4477 198.283 80.8491 198.169C74.6637 196.97 68.6067 195.183 62.7604 192.834C61.8107 192.453 60.8679 192.057 59.932 191.648C59.2929 191.37 58.6538 191.083 58.0207 190.787C40.701 182.76 26.037 169.949 15.7572 153.863C5.47737 137.778 0.0101676 119.089 0 100C0 44.7722 44.7722 0 100 0C155.228 0 200 44.7722 200 100Z" fill="white"/>
<path opacity="0.2" d="M82.6479 198.5C82.0473 198.393 81.4477 198.283 80.8491 198.169C80.4585 186.834 79.1183 163.571 74.5473 139.207C72.0473 125.873 68.5769 112.204 63.7633 99.9852C62.1142 95.7573 60.2306 91.6247 58.1213 87.6065C53.2574 78.4201 47.3579 70.6864 40.2041 65.4467L41.2574 64.0089C47.2071 68.3698 52.5542 74.4921 57.2988 82.3757C58.7219 84.7367 60.0887 87.2554 61.3994 89.932C62.8047 92.7959 64.1449 95.8363 65.4201 99.0533C66.2337 101.101 67.0197 103.219 67.7781 105.408C71.0799 114.914 73.8866 125.76 76.1982 137.947C76.71 140.639 77.1972 143.397 77.6597 146.222C81.2426 168.107 82.3224 188.34 82.6479 198.5Z" fill="black"/>
<path opacity="0.2" d="M59.932 191.648C59.293 191.37 58.6539 191.083 58.0208 190.787C57.4025 184.071 56.2664 175.74 54.1894 167.831C53.2798 164.28 52.112 160.799 50.6954 157.417C48.3255 151.87 45.2575 147.154 41.29 144.246L42.3433 142.811C46.4971 145.852 49.7013 150.66 52.1776 156.284C54.9675 162.621 56.8285 169.997 58.0681 177.044C58.9883 182.278 59.5681 187.334 59.932 191.648Z" fill="black"/>
<path opacity="0.2" d="M30.255 65.4054C35.1714 65.4054 39.1569 61.4199 39.1569 56.5035C39.1569 51.587 35.1714 47.6015 30.255 47.6015C25.3386 47.6015 21.353 51.587 21.353 56.5035C21.353 61.4199 25.3386 65.4054 30.255 65.4054Z" fill="black"/>
<path opacity="0.2" d="M33.1217 142.035C38.0381 142.035 42.0236 138.05 42.0236 133.133C42.0236 128.217 38.0381 124.231 33.1217 124.231C28.2053 124.231 24.2197 128.217 24.2197 133.133C24.2197 138.05 28.2053 142.035 33.1217 142.035Z" fill="black"/>
<path opacity="0.2" d="M65.5962 71.456C63.7085 82.1061 67.8756 91.7496 67.8756 91.7496C67.8756 91.7496 75.1034 84.1259 76.9911 73.4758C78.8788 62.8257 74.7116 53.1822 74.7116 53.1822C74.7116 53.1822 67.4839 60.8059 65.5962 71.456Z" fill="black"/>
<path opacity="0.2" d="M36.0112 96.7371C46.1695 100.452 56.3771 98.0678 56.3771 98.0678C56.3771 98.0678 50.115 89.6617 39.9567 85.9472C29.7985 82.2326 19.5908 84.6164 19.5908 84.6164C19.5908 84.6164 25.853 93.0226 36.0112 96.7371Z" fill="black"/>
<path opacity="0.2" d="M34.2884 164.596C41.4085 167.199 48.5733 165.501 48.5733 165.501C48.5733 165.501 44.1941 159.581 37.074 156.977C29.9539 154.374 22.7891 156.072 22.7891 156.072C22.7891 156.072 27.1682 161.992 34.2884 164.596Z" fill="black"/>
<path d="M99.7948 122.145C121.326 122.145 138.78 104.69 138.78 83.1594C138.78 61.6285 121.326 44.1742 99.7948 44.1742C78.2639 44.1742 60.8096 61.6285 60.8096 83.1594C60.8096 104.69 78.2639 122.145 99.7948 122.145Z" fill="#D0CDE1"/>
<path d="M84.5659 113.007C84.5659 113.007 89.4391 136.155 89.4391 138.592C89.4391 141.028 112.587 151.993 112.587 151.993L133.297 148.338L140.607 126.409C140.607 126.409 128.424 108.134 128.424 100.825L84.5659 113.007Z" fill="#D0CDE1"/>
<path d="M191.947 139.379L191.615 140.142C182.598 160.657 166.962 177.555 147.207 188.134C127.453 198.714 104.721 202.364 82.6479 198.5C82.0473 198.393 81.4477 198.283 80.8491 198.169C74.6636 196.97 68.6066 195.183 62.7603 192.834C61.8106 192.453 60.8678 192.057 59.9319 191.648C59.2929 191.37 58.6538 191.083 58.0207 190.787C52.2819 188.128 46.8086 184.93 41.6745 181.237L37.0532 167.831L39.6509 165.849L44.994 161.769L50.6952 157.417L52.1775 156.284L74.5473 139.207L76.1982 137.947L87.8254 129.071L87.8284 129.068C87.8284 129.068 100.402 149.556 118.677 143.465C136.953 137.373 136.553 119.905 136.553 119.905L191.947 139.379Z" fill="#2F2E41"/>
<path d="M65.9871 51.7503C65.9871 51.7503 78.3648 24.932 102.089 31.1209C125.813 37.3097 139.222 46.5929 140.253 55.8762C141.285 65.1595 139.737 79.0843 139.737 79.0843C139.737 79.0843 137.159 60.0021 120.655 64.128C104.152 68.2539 78.3648 65.1594 78.3648 65.1594L74.2389 102.292C74.2389 102.292 69.5973 95.5879 64.4399 99.7138C59.2825 103.84 49.4835 60.0021 65.9871 51.7503Z" fill="#2F2E41"/>
<path d="M62.7603 192.834C61.8106 192.453 60.8678 192.057 59.9319 191.648C59.2928 191.37 58.6538 191.083 58.0206 190.787C48.5293 186.386 39.7854 180.526 32.1064 173.42C34.8254 169.716 37.0532 167.831 37.0532 167.831H55.3283L58.068 177.044L62.7603 192.834Z" fill="#2F2E41"/>
<path d="M175.938 137.373L191.616 140.142C187.42 149.7 181.754 158.542 174.823 166.346L175.938 137.373Z" fill="#2F2E41"/>
</g>
<defs>
<clipPath id="clip0">
<rect width="200" height="200" fill="white"/>
</clipPath>
</defs>
</svg>
