<svg viewBox="0 0 100 100" xmlns="http://www.w3.org/2000/svg">
<path d="M33.3333 55H30V58.3333H33.3333V55Z" />
<path d="M33.3333 61.6667H30V65.0001H33.3333V61.6667Z" />
<path d="M33.3333 68.3333H30V71.6666H33.3333V68.3333Z" />
<path d="M33.3333 48.3333H30V51.6666H33.3333V48.3333Z" />
<path d="M33.3333 41.6667H30V45.0001H33.3333V41.6667Z" />
<path d="M33.3333 35H30V38.3333H33.3333V35Z" />
<path d="M33.3333 28.3333H30V31.6666H33.3333V28.3333Z" />
<path d="M10.0001 28.3333H6.66675V31.6666H10.0001V28.3333Z" />
<path d="M93.3333 28.3333H90V31.6666H93.3333V28.3333Z" />
<path d="M93.3333 68.3333H90V71.6666H93.3333V68.3333Z" />
<path d="M10.0001 68.3333H6.66675V71.6666H10.0001V68.3333Z" />
<path d="M98.3333 41.6667C99.2537 41.6667 100 40.9205 100 40.0001V23.3334C100 22.413 99.2537 21.6667 98.3333 21.6667H1.66667C0.74625 21.6667 0 22.413 0 23.3334V40.0001C0 40.9205 0.74625 41.6667 1.66667 41.6667C6.26896 41.6667 10 45.3978 10 50.0001C10 54.6024 6.26896 58.3334 1.66667 58.3334C0.74625 58.3334 0 59.0797 0 60.0001V76.6668C0 77.5872 0.74625 78.3334 1.66667 78.3334H98.3333C99.2537 78.3334 100 77.5872 100 76.6668V60.0001C100 59.0797 99.2537 58.3334 98.3333 58.3334C93.731 58.3334 90 54.6024 90 50.0001C90 45.3978 93.731 41.6667 98.3333 41.6667ZM86.7758 51.6576C87.5117 56.7847 91.5398 60.8126 96.6667 61.5484V75.0001H3.33333V61.5484C9.71125 60.633 14.1396 54.7207 13.2242 48.3426C12.4883 43.2157 8.46042 39.1876 3.33333 38.4517V25.0001H96.6667V38.4517C90.2887 39.3672 85.8604 45.2795 86.7758 51.6576Z" />
<path d="M49.9999 33.3333C46.318 33.3333 43.3333 36.318 43.3333 39.9999C43.3333 43.6818 46.318 46.6666 49.9999 46.6666C53.6818 46.6666 56.6666 43.6818 56.6666 39.9999C56.6666 36.318 53.6818 33.3333 49.9999 33.3333ZM49.9999 43.3333C48.1589 43.3333 46.6666 41.841 46.6666 39.9999C46.6666 38.1589 48.1589 36.6666 49.9999 36.6666C51.841 36.6666 53.3333 38.1589 53.3333 39.9999C53.3333 41.841 51.841 43.3333 49.9999 43.3333Z" />
<path d="M69.9999 53.3333C66.318 53.3333 63.3333 56.318 63.3333 59.9999C63.3333 63.6818 66.318 66.6666 69.9999 66.6666C73.6818 66.6666 76.6666 63.6818 76.6666 59.9999C76.6666 56.318 73.6818 53.3333 69.9999 53.3333ZM69.9999 63.3333C68.1589 63.3333 66.6666 61.841 66.6666 59.9999C66.6666 58.1589 68.1589 56.6666 69.9999 56.6666C71.841 56.6666 73.3333 58.1589 73.3333 59.9999C73.3333 61.841 71.841 63.3333 69.9999 63.3333Z" />
<path d="M72.1546 35.4846L45.4885 62.1506L47.8455 64.5076L74.5116 37.8416L72.1546 35.4846Z" />
</svg>
