<svg width="914" height="714" viewBox="0 0 914 714" fill="none" xmlns="http://www.w3.org/2000/svg">
<path fill-rule="evenodd" clip-rule="evenodd" d="M579.949 272.873L580.105 272.903L670.216 295.96C671.271 296.23 671.484 297.637 670.556 298.209L592.121 346.468C591.209 347.029 590.065 346.242 590.262 345.189L597.197 308.044L578.719 274.699C578.221 273.799 578.973 272.746 579.949 272.873ZM593.2 342.904L664.165 299.24L599.624 308.495L593.2 342.904ZM598.94 306.097L663.626 296.822L582.267 276.005L598.94 306.097ZM27.2349 256.386C24.8888 252.787 22.7426 249.206 20.8006 245.646C20.1482 244.45 20.5888 242.952 21.7847 242.299C22.9806 241.647 24.479 242.087 25.1314 243.283C27.0106 246.728 29.0906 250.198 31.3676 253.691C32.1115 254.832 31.7895 256.361 30.6483 257.105C29.5071 257.849 27.9789 257.527 27.2349 256.386ZM50.4118 285.745C47.5306 282.624 44.7836 279.507 42.174 276.397C41.2983 275.353 41.4344 273.797 42.478 272.922C43.5215 272.046 45.0774 272.182 45.953 273.225C48.512 276.275 51.2078 279.334 54.037 282.399C54.9609 283.4 54.8984 284.961 53.8973 285.885C52.8963 286.809 51.3357 286.746 50.4118 285.745ZM77.208 311.605C74.0365 308.844 70.9594 306.078 67.9799 303.311C66.9818 302.384 66.9242 300.823 67.8513 299.825C68.7784 298.827 70.3391 298.769 71.3372 299.696C74.2777 302.427 77.3155 305.157 80.4477 307.884C81.4751 308.779 81.5827 310.337 80.6881 311.365C79.7934 312.392 78.2354 312.5 77.208 311.605ZM106.276 334.871C102.913 332.383 99.6198 329.884 96.3979 327.377C95.3227 326.541 95.1294 324.991 95.9659 323.916C96.8025 322.841 98.3523 322.647 99.4274 323.483C102.618 325.966 105.88 328.44 109.211 330.905C110.306 331.716 110.536 333.261 109.726 334.356C108.915 335.451 107.371 335.682 106.276 334.871ZM136.805 355.971C133.312 353.71 129.868 351.434 126.476 349.143C125.348 348.381 125.051 346.848 125.813 345.719C126.576 344.59 128.109 344.292 129.238 345.055C132.602 347.327 136.019 349.586 139.486 351.829C140.629 352.569 140.956 354.097 140.216 355.24C139.476 356.384 137.949 356.711 136.805 355.971ZM168.533 375.296C164.935 373.232 161.371 371.146 157.844 369.042C156.674 368.344 156.292 366.83 156.99 365.66C157.688 364.49 159.202 364.107 160.372 364.805C163.875 366.895 167.415 368.966 170.988 371.016C172.17 371.694 172.578 373.201 171.9 374.383C171.222 375.565 169.715 375.973 168.533 375.296ZM201.156 392.957C197.478 391.079 193.82 389.175 190.184 387.245C188.981 386.606 188.523 385.113 189.162 383.909C189.801 382.706 191.294 382.248 192.497 382.887C196.11 384.805 199.745 386.697 203.399 388.563C204.613 389.183 205.094 390.669 204.474 391.882C203.855 393.096 202.369 393.577 201.156 392.957ZM234.614 409.056C230.866 407.361 227.123 405.632 223.389 403.871C222.157 403.29 221.629 401.82 222.21 400.588C222.791 399.356 224.261 398.828 225.493 399.409C229.204 401.158 232.923 402.876 236.648 404.561C237.889 405.122 238.44 406.584 237.878 407.825C237.317 409.066 235.856 409.617 234.614 409.056ZM268.797 423.528C264.983 422.025 261.159 420.479 257.329 418.894C256.07 418.373 255.472 416.93 255.993 415.671C256.514 414.412 257.957 413.814 259.216 414.335C263.021 415.91 266.819 417.445 270.607 418.939C271.874 419.438 272.496 420.871 271.996 422.138C271.497 423.406 270.064 424.028 268.797 423.528ZM303.693 436.218C299.817 434.931 295.911 433.592 291.98 432.202C290.696 431.748 290.023 430.339 290.477 429.054C290.931 427.77 292.341 427.097 293.625 427.551C297.526 428.93 301.402 430.259 305.248 431.535C306.54 431.964 307.241 433.36 306.811 434.653C306.382 435.946 304.986 436.647 303.693 436.218ZM339.333 446.768C335.401 445.755 331.412 444.673 327.372 443.525C326.062 443.152 325.302 441.788 325.674 440.477C326.047 439.167 327.411 438.407 328.722 438.779C332.722 439.916 336.672 440.987 340.564 441.99C341.883 442.33 342.677 443.675 342.337 444.994C341.997 446.313 340.652 447.107 339.333 446.768ZM375.757 454.42C371.774 453.797 367.693 453.079 363.518 452.266C362.181 452.005 361.309 450.71 361.569 449.373C361.83 448.036 363.125 447.163 364.462 447.423C368.577 448.225 372.598 448.933 376.519 449.546C377.865 449.756 378.786 451.018 378.575 452.364C378.365 453.71 377.103 454.63 375.757 454.42ZM413.025 457.371C409.04 457.44 404.868 457.355 400.517 457.117C399.156 457.042 398.114 455.879 398.189 454.519C398.263 453.158 399.427 452.116 400.787 452.19C405.023 452.422 409.077 452.505 412.939 452.438C414.301 452.414 415.424 453.499 415.448 454.862C415.472 456.224 414.387 457.347 413.025 457.371ZM450.18 453.256C446.026 453.961 441.941 454.589 437.903 455.14C436.553 455.324 435.31 454.379 435.126 453.029C434.942 451.679 435.887 450.436 437.237 450.252C441.221 449.708 445.253 449.089 449.354 448.392C450.697 448.164 451.971 449.067 452.199 450.41C452.427 451.754 451.523 453.027 450.18 453.256ZM486.558 445.643C482.374 446.65 478.38 447.579 474.497 448.443C473.168 448.739 471.85 447.901 471.554 446.571C471.258 445.241 472.096 443.923 473.426 443.627C477.28 442.769 481.246 441.848 485.403 440.846C486.728 440.527 488.06 441.342 488.379 442.667C488.698 443.991 487.882 445.324 486.558 445.643ZM522.451 436.483L510.51 439.598C509.192 439.94 507.845 439.149 507.502 437.831C507.16 436.512 507.951 435.166 509.269 434.823L521.207 431.709C522.525 431.365 523.872 432.155 524.216 433.474C524.559 434.792 523.769 436.139 522.451 436.483ZM549.411 429.657L546.326 430.405C545.003 430.729 543.668 429.919 543.344 428.595C543.021 427.272 543.831 425.937 545.155 425.613C548.293 424.845 551.319 424.122 554.269 423.436L557.196 422.761C558.524 422.458 559.846 423.289 560.149 424.617C560.452 425.945 559.621 427.268 558.293 427.571C555.408 428.229 552.46 428.922 549.411 429.657ZM594.433 420.61C590.453 421.209 586.427 421.878 582.335 422.617C580.994 422.86 579.711 421.969 579.469 420.629C579.227 419.288 580.117 418.005 581.458 417.763C585.597 417.014 589.67 416.338 593.7 415.731C595.047 415.529 596.303 416.456 596.506 417.803C596.708 419.151 595.78 420.407 594.433 420.61ZM630.981 417.051C626.925 417.214 622.856 417.46 618.765 417.786C617.407 417.894 616.218 416.881 616.11 415.523C616.002 414.165 617.015 412.976 618.373 412.868C622.528 412.537 626.661 412.288 630.783 412.121C632.144 412.066 633.292 413.125 633.347 414.487C633.402 415.848 632.343 416.996 630.981 417.051ZM667.648 417.866C663.575 417.515 659.509 417.252 655.445 417.076C654.084 417.017 653.029 415.866 653.088 414.505C653.147 413.144 654.298 412.088 655.659 412.147C659.793 412.326 663.93 412.593 668.073 412.951C669.43 413.068 670.435 414.264 670.318 415.621C670.2 416.978 669.005 417.984 667.648 417.866ZM703.918 423.343C699.9 422.477 695.899 421.7 691.912 421.011C690.569 420.779 689.669 419.502 689.902 418.16C690.134 416.818 691.41 415.917 692.753 416.15C696.806 416.85 700.874 417.64 704.958 418.52C706.29 418.807 707.136 420.119 706.849 421.451C706.562 422.783 705.25 423.63 703.918 423.343ZM730.52 430.312C729.556 430.015 728.593 429.723 727.631 429.436C726.325 429.047 725.582 427.673 725.972 426.368C726.361 425.062 727.735 424.319 729.04 424.708C730.016 424.999 730.994 425.295 731.972 425.597C734.98 426.523 737.958 427.534 740.904 428.627C742.181 429.101 742.833 430.52 742.359 431.797C741.885 433.075 740.465 433.726 739.188 433.252C736.329 432.191 733.439 431.211 730.52 430.312ZM771.688 449.611C768.296 447.406 764.818 445.321 761.263 443.364C760.07 442.707 759.635 441.207 760.292 440.014C760.949 438.82 762.449 438.385 763.643 439.042C767.303 441.058 770.884 443.204 774.377 445.474C775.519 446.217 775.843 447.744 775.1 448.887C774.358 450.029 772.83 450.353 771.688 449.611ZM799.834 472.665C797.026 469.787 794.089 466.994 791.034 464.3C790.013 463.399 789.915 461.84 790.816 460.818C791.717 459.796 793.276 459.699 794.298 460.6C797.445 463.376 800.471 466.253 803.365 469.219C804.316 470.194 804.297 471.756 803.322 472.707C802.347 473.659 800.785 473.64 799.834 472.665ZM821.919 501.552C819.935 498.115 817.756 494.705 815.392 491.343C814.609 490.228 814.877 488.69 815.991 487.906C817.106 487.122 818.644 487.39 819.428 488.505C821.875 491.986 824.134 495.52 826.192 499.085C826.873 500.265 826.468 501.774 825.289 502.455C824.109 503.136 822.6 502.731 821.919 501.552ZM834.61 535.168C833.964 531.361 833.011 527.47 831.758 523.526C831.346 522.228 832.064 520.841 833.362 520.428C834.661 520.015 836.047 520.733 836.46 522.032C837.781 526.191 838.789 530.306 839.473 534.343C839.701 535.686 838.797 536.96 837.454 537.188C836.111 537.415 834.837 536.511 834.61 535.168ZM830.188 569.763C832.006 566.389 833.37 562.732 834.276 558.826C834.584 557.499 835.909 556.672 837.236 556.98C838.563 557.288 839.389 558.613 839.081 559.94C838.078 564.267 836.56 568.336 834.531 572.103C833.885 573.302 832.389 573.751 831.19 573.105C829.99 572.459 829.542 570.963 830.188 569.763ZM803.396 591.188C807.328 589.819 810.91 588.162 814.138 586.232C815.307 585.533 816.822 585.914 817.521 587.083C818.22 588.252 817.839 589.767 816.669 590.466C813.148 592.572 809.261 594.37 805.018 595.847C803.731 596.295 802.325 595.615 801.877 594.328C801.43 593.042 802.11 591.636 803.396 591.188ZM767.654 595.847C771.874 595.958 775.912 595.889 779.766 595.643C781.126 595.557 782.298 596.588 782.384 597.948C782.471 599.308 781.439 600.48 780.079 600.567C776.075 600.822 771.89 600.893 767.524 600.779C766.163 600.743 765.088 599.61 765.123 598.249C765.159 596.887 766.292 595.812 767.654 595.847ZM731.38 591.343C735.496 592.191 739.502 592.919 743.398 593.529C744.744 593.74 745.664 595.002 745.453 596.348C745.242 597.694 743.98 598.614 742.635 598.403C738.66 597.781 734.576 597.039 730.384 596.175C729.05 595.9 728.191 594.595 728.466 593.261C728.741 591.926 730.046 591.068 731.38 591.343ZM699.022 582.888C701.942 583.795 704.822 584.655 707.66 585.467C708.969 585.841 709.727 587.207 709.353 588.517C708.978 589.826 707.612 590.585 706.303 590.21C702.71 589.183 699.054 588.08 695.333 586.901L694.405 586.607C693.108 586.193 692.391 584.805 692.804 583.507C693.218 582.209 694.606 581.492 695.904 581.906L699.022 582.888ZM661.25 569.504C665.01 571.008 668.827 572.48 672.7 573.918C673.977 574.392 674.628 575.811 674.154 577.088C673.68 578.366 672.26 579.017 670.983 578.543C667.071 577.091 663.215 575.604 659.417 574.084C658.152 573.578 657.537 572.142 658.043 570.877C658.55 569.613 659.985 568.997 661.25 569.504ZM627.7 554.455C631.311 556.266 634.987 558.041 638.727 559.781C639.963 560.355 640.498 561.822 639.924 563.058C639.349 564.293 637.882 564.829 636.647 564.254C632.862 562.494 629.143 560.698 625.488 558.865C624.271 558.255 623.778 556.773 624.389 555.555C625 554.337 626.482 553.845 627.7 554.455ZM595.671 536.425C599.086 538.581 602.575 540.701 606.139 542.783C607.315 543.47 607.711 544.981 607.024 546.157C606.337 547.334 604.826 547.73 603.65 547.043C600.037 544.932 596.499 542.783 593.037 540.596C591.885 539.869 591.541 538.346 592.269 537.194C592.996 536.042 594.519 535.698 595.671 536.425ZM565.785 515.111C568.922 517.642 572.146 520.136 575.458 522.593C576.552 523.404 576.781 524.949 575.969 526.043C575.157 527.138 573.612 527.367 572.518 526.555C569.154 524.059 565.877 521.524 562.687 518.951C561.627 518.095 561.461 516.542 562.317 515.482C563.172 514.422 564.725 514.255 565.785 515.111ZM538.848 490.28C541.61 493.206 544.475 496.099 547.441 498.956C548.422 499.901 548.451 501.463 547.506 502.444C546.561 503.425 544.999 503.455 544.018 502.51C540.996 499.598 538.077 496.65 535.261 493.667C534.326 492.677 534.371 491.116 535.361 490.18C536.352 489.245 537.913 489.29 538.848 490.28ZM515.848 461.81C518.11 465.13 520.494 468.426 522.999 471.695C523.828 472.777 523.623 474.325 522.541 475.154C521.46 475.982 519.912 475.778 519.083 474.696C516.523 471.354 514.085 467.984 511.771 464.589C511.004 463.463 511.295 461.928 512.421 461.161C513.546 460.394 515.081 460.684 515.848 461.81ZM487.359 395.191C488.054 399.065 488.941 403.014 490.02 407.018C490.375 408.333 489.596 409.687 488.281 410.042C486.966 410.397 485.612 409.618 485.257 408.303C484.141 404.164 483.223 400.076 482.503 396.063C482.262 394.722 483.154 393.439 484.495 393.199C485.836 392.958 487.118 393.85 487.359 395.191ZM487.041 359.367C486.256 362.937 485.755 366.906 485.565 371.186C485.504 372.547 484.352 373.601 482.991 373.541C481.63 373.48 480.576 372.328 480.636 370.967C480.839 366.412 481.375 362.163 482.223 358.307C482.516 356.977 483.832 356.136 485.162 356.428C486.493 356.721 487.334 358.037 487.041 359.367ZM506.857 331.068C503.575 333.501 500.634 336.142 498.03 338.989C497.111 339.994 495.551 340.064 494.546 339.145C493.54 338.225 493.471 336.665 494.39 335.66C497.21 332.576 500.387 329.724 503.919 327.105C505.013 326.293 506.558 326.523 507.369 327.617C508.181 328.711 507.951 330.256 506.857 331.068ZM539.534 316.241C535.47 317.324 531.627 318.542 528.003 319.894C526.726 320.371 525.306 319.722 524.83 318.446C524.354 317.169 525.002 315.748 526.279 315.272C530.054 313.863 534.049 312.597 538.263 311.474C539.58 311.123 540.931 311.906 541.282 313.222C541.633 314.538 540.85 315.89 539.534 316.241ZM575.552 310.537C571.359 310.845 567.308 311.242 563.4 311.727C562.048 311.895 560.816 310.935 560.648 309.583C560.481 308.231 561.441 306.999 562.793 306.831C566.785 306.336 570.917 305.931 575.19 305.617C576.549 305.517 577.731 306.537 577.831 307.896C577.931 309.254 576.91 310.437 575.552 310.537Z" fill="#2A5885"/>
</svg>
