<svg width="45" height="45" viewBox="0 0 51 50" fill="none" xmlns="http://www.w3.org/2000/svg">
<g clip-path="url(#clip0)">
<path d="M31.1609 12.1979C32.4687 12.258 33.3727 12.4502 34.2081 12.7745C35.0002 13.0706 35.7172 13.5377 36.3083 14.1424C36.913 14.7335 37.3801 15.4505 37.6762 16.2426C38.0005 17.079 38.1927 17.982 38.2528 19.2898C38.3269 20.9111 38.3355 21.4823 38.3355 24.9998C38.3355 28.5173 38.3269 29.0886 38.2528 30.7099C38.1927 32.0177 38.0005 32.9217 37.6762 33.7582C37.3799 34.5498 36.9129 35.2665 36.3083 35.8573C35.7173 36.462 35.0002 36.9291 34.2081 37.2252C33.3717 37.5495 32.4687 37.7417 31.1609 37.8018C29.5396 37.8759 28.9694 37.8845 25.4508 37.8845C21.9322 37.8845 21.361 37.8759 19.7408 37.8018C18.433 37.7417 17.5289 37.5495 16.6925 37.2252C15.9008 36.929 15.1841 36.4619 14.5933 35.8573C13.9886 35.2662 13.5216 34.5492 13.2254 33.7571C12.9012 32.9207 12.709 32.0177 12.6488 30.7099C12.5748 29.0907 12.5662 28.5195 12.5662 24.9998C12.5662 21.4813 12.5748 20.909 12.6488 19.2898C12.709 17.982 12.9012 17.078 13.2254 16.2426C13.5216 15.4505 13.9886 14.7335 14.5933 14.1424C15.1841 13.5378 15.9008 13.0708 16.6925 12.7745C17.53 12.4502 18.433 12.258 19.7408 12.1979C21.3599 12.1238 21.9312 12.1152 25.4508 12.1152C28.9694 12.1152 29.5417 12.1238 31.1609 12.1979ZM25.4508 14.9788C21.972 14.9788 21.4394 14.9864 19.8707 15.0583C18.8754 15.1034 18.2784 15.2301 17.7297 15.4438C17.2626 15.6263 16.9652 15.8196 16.6173 16.1664C16.2694 16.5143 16.0762 16.8117 15.8947 17.2787C15.6821 17.8263 15.5543 18.4244 15.5092 19.4197C15.4373 20.9884 15.4298 21.521 15.4298 24.9998C15.4298 28.4787 15.4373 29.0113 15.5092 30.58C15.5543 31.5753 15.681 32.1723 15.8947 32.7199C16.0772 33.188 16.2705 33.4854 16.6173 33.8333C16.9652 34.1812 17.2626 34.3745 17.7297 34.5559C18.2773 34.7685 18.8754 34.8963 19.8707 34.9414C21.4405 35.0133 21.973 35.0209 25.4508 35.0209C28.9297 35.0209 29.4612 35.0133 31.031 34.9414C32.0263 34.8963 32.6233 34.7696 33.172 34.5559C33.639 34.3734 33.9364 34.1801 34.2843 33.8333C34.6322 33.4854 34.8255 33.188 35.0069 32.721C35.2195 32.1734 35.3473 31.5753 35.3924 30.58C35.4644 29.0102 35.4719 28.4776 35.4719 24.9998C35.4719 21.5221 35.4644 20.9895 35.3924 19.4197C35.3473 18.4244 35.2206 17.8274 35.0069 17.2798C34.8551 16.8579 34.6078 16.4769 34.2843 16.1664C33.9739 15.8429 33.5928 15.5956 33.1709 15.4438C32.6233 15.2312 32.0252 15.1034 31.0299 15.0583C29.4612 14.9864 28.9286 14.9788 25.4498 14.9788H25.4508ZM25.4508 31.6805C23.679 31.6805 21.9797 30.9767 20.7269 29.7238C19.474 28.4709 18.7701 26.7717 18.7701 24.9998C18.7701 23.228 19.474 21.5288 20.7269 20.2759C21.9797 19.023 23.679 18.3192 25.4508 18.3192C27.2227 18.3192 28.9219 19.023 30.1748 20.2759C31.4277 21.5288 32.1315 23.228 32.1315 24.9998C32.1315 26.7717 31.4277 28.4709 30.1748 29.7238C28.9219 30.9767 27.2227 31.6805 25.4508 31.6805ZM25.4508 28.818C26.4635 28.818 27.4346 28.4157 28.1507 27.6997C28.8667 26.9836 29.269 26.0125 29.269 24.9998C29.269 23.9872 28.8667 23.0161 28.1507 22.3C27.4346 21.584 26.4635 21.1817 25.4508 21.1817C24.4382 21.1817 23.467 21.584 22.751 22.3C22.0349 23.0161 21.6327 23.9872 21.6327 24.9998C21.6327 26.0125 22.0349 26.9836 22.751 27.6997C23.467 28.4157 24.4382 28.818 25.4508 28.818ZM32.1315 19.7504C31.7518 19.7504 31.3876 19.5996 31.1191 19.3311C30.8506 19.0626 30.6997 18.6984 30.6997 18.3186C30.6997 17.9389 30.8506 17.5747 31.1191 17.3062C31.3876 17.0377 31.7518 16.8868 32.1315 16.8868C32.5113 16.8868 32.8754 17.0377 33.144 17.3062C33.4125 17.5747 33.5633 17.9389 33.5633 18.3186C33.5633 18.6984 33.4125 19.0626 33.144 19.3311C32.8754 19.5996 32.5113 19.7504 32.1315 19.7504Z" fill="white"/>
</g>
<defs>
<clipPath id="clip0">
<rect width="25.7693" height="25.7692" fill="white" transform="translate(12.5662 12.1152)"/>
</clipPath>
</defs>
</svg>
