<svg width="50" height="50" viewBox="0 0 50 50" fill="none" xmlns="http://www.w3.org/2000/svg">
<path d="M48.5542 24.9842C48.5542 38.0016 38.0015 48.5543 24.9841 48.5543C11.9667 48.5543 1.41406 38.0016 1.41406 24.9842C1.41406 11.9668 11.9667 1.41412 24.9841 1.41412C38.0015 1.41412 48.5542 11.9668 48.5542 24.9842Z" fill="#F2F2F2"/>
<path d="M33.4338 33.4337C34.121 34.1209 35.2563 34.1101 35.9568 33.4096L37.8671 31.4993C38.0899 31.2765 38.4672 31.399 38.5272 31.7138C38.6485 32.2171 38.9279 32.6875 39.4294 32.998C40.1815 33.4954 41.1588 33.5176 41.8887 33.0376C43.158 32.2056 43.2686 30.5332 42.3003 29.5649C41.9879 29.2526 41.6425 29.0982 41.2653 28.9757C40.9505 28.9156 40.828 28.5384 41.0827 28.2837L42.993 26.3734C43.6935 25.6729 43.7043 24.5376 43.0171 23.8504L40.8307 21.664C40.612 21.4453 40.2324 21.5751 40.1663 21.8911C40.0353 22.3968 39.7469 22.8726 39.2393 23.1928C38.4776 23.7046 37.4997 23.7455 36.7789 23.2794C35.5565 22.5027 35.4466 20.8009 36.4336 19.814C36.752 19.4956 37.1004 19.3346 37.48 19.2048C37.7642 19.1706 37.8939 18.7909 37.6753 18.5723L35.8012 16.6982C35.114 16.011 33.9787 16.0218 33.2782 16.7223L25.0003 25.0002L33.4338 33.4337Z" fill="#F1592A"/>
<path d="M16.5666 33.4335C15.8794 34.1207 15.8903 35.256 16.5907 35.9564L18.501 37.8667C18.7239 38.0896 18.6013 38.4668 18.2866 38.5269C17.7832 38.6482 17.3129 38.9275 17.0023 39.4291C16.505 40.1811 16.4828 41.1585 16.9627 41.8883C17.7947 43.1577 19.4671 43.2682 20.4354 42.2999C20.7478 41.9876 20.9021 41.6422 21.0247 41.2649C21.0847 40.9502 21.4619 40.8277 21.7167 41.0824L23.6269 42.9926C24.3274 43.6931 25.4627 43.7039 26.1499 43.0167L28.3364 40.8303C28.555 40.6116 28.4252 40.232 28.1093 40.1659C27.6035 40.0349 27.1277 39.7466 26.8075 39.239C26.2957 38.4773 26.2548 37.4993 26.7209 36.7785C27.4976 35.5561 29.1994 35.4462 30.1864 36.4332C30.5048 36.7516 30.6658 37.1 30.7955 37.4796C30.8298 37.7638 31.2094 37.8935 31.4281 37.6749L33.3022 35.8008C33.9894 35.1136 33.9785 33.9783 33.2781 33.2778L25.0002 24.9999L16.5666 33.4335Z" fill="#8CC63F"/>
<path d="M33.4334 16.5663C34.1206 15.8791 34.1097 14.7438 33.4093 14.0433L31.499 12.133C31.2761 11.9102 31.3987 11.5329 31.7134 11.4729C32.2168 11.3516 32.6871 11.0722 32.9977 10.5707C33.495 9.81861 33.5172 8.84127 33.0373 8.11141C32.2053 6.8421 30.5329 6.73152 29.5646 7.69982C29.2522 8.01217 29.0979 8.35757 28.9753 8.73481C28.9153 9.04957 28.5381 9.1721 28.2833 8.9174L26.3731 7.00711C25.6726 6.30668 24.5373 6.29583 23.8501 6.98301L21.6636 9.16949C21.445 9.38814 21.5748 9.76778 21.8907 9.83387C22.3965 9.96484 22.8723 10.2532 23.1925 10.7608C23.7043 11.5225 23.7452 12.5004 23.279 13.2213C22.5024 14.4437 20.8006 14.5535 19.8136 13.5666C19.4952 13.2482 19.3342 12.8998 19.2045 12.5201C19.1702 12.236 18.7906 12.1062 18.5719 12.3249L16.6978 14.199C16.0106 14.8862 16.0215 16.0215 16.7219 16.7219L24.9998 24.9998L33.4334 16.5663Z" fill="#57B7DF"/>
<path d="M16.5667 16.5661C15.8795 15.8789 14.7442 15.8898 14.0437 16.5902L12.1334 18.5005C11.9106 18.7234 11.5333 18.6008 11.4733 18.2861C11.3519 17.7827 11.0726 17.3123 10.5711 17.0018C9.81899 16.5044 8.84166 16.4823 8.11179 16.9622C6.84248 17.7942 6.7319 19.4666 7.70019 20.4349C8.01254 20.7472 8.35794 20.9016 8.73518 21.0241C9.04994 21.0842 9.17247 21.4614 8.91777 21.7161L7.00747 23.6264C6.30703 24.3269 6.29618 25.4622 6.98336 26.1494L9.16983 28.3358C9.38848 28.5545 9.76813 28.4247 9.83421 28.1088C9.96518 27.603 10.2535 27.1272 10.7611 26.807C11.5228 26.2952 12.5008 26.2543 13.2216 26.7204C14.444 27.4971 14.5539 29.1989 13.5669 30.1859C13.2485 30.5042 12.9001 30.6652 12.5205 30.795C12.2363 30.8292 12.1066 31.2089 12.3252 31.4275L14.1993 33.3017C14.8865 33.9888 16.0218 33.978 16.7223 33.2775L25.0002 24.9996C24.9953 25.0045 25.0002 24.9996 24.9953 25.0045L16.5667 16.5661Z" fill="#F7941E"/>
</svg>
