<svg viewBox="0 0 100 100" xmlns="http://www.w3.org/2000/svg">
<path d="M80 40C91.0286 40 100 31.0286 100 20C100 8.97135 91.0286 0 80 0C71.9914 0 65.0863 4.74202 61.8953 11.5568L56.5397 9.58008C56.6032 9.16992 56.6667 8.75977 56.6667 8.33333C56.6667 3.73861 52.9281 0 48.3333 0C43.7386 0 40 3.73861 40 8.33333C40 12.9281 43.7386 16.6667 48.3333 16.6667C51.3184 16.6667 53.9217 15.0749 55.3931 12.71L60.7397 14.6834C60.2702 16.3802 60 18.1567 60 20C60 22.1834 60.363 24.2798 61.0132 26.2484L42.6831 34.0169C39.327 27.6717 32.6652 23.3333 25 23.3333C22.5163 23.3333 20.1465 23.8102 17.95 24.6403L13.3398 14.952C15.3483 13.4285 16.6667 11.0417 16.6667 8.33333C16.6667 3.73861 12.9281 0 8.33333 0C3.73861 0 0 3.73861 0 8.33333C0 12.9281 3.73861 16.6667 8.33333 16.6667C9.02669 16.6667 9.69157 16.5568 10.3369 16.3949L14.9414 26.0734C9.00635 29.5467 5 35.9733 5 43.3333C5 50.2466 8.52702 56.3485 13.8737 59.9414L10.8252 65.4215C10.0317 65.1717 9.20654 65 8.33333 65C3.73861 65 0 68.7386 0 73.3333C0 77.9281 3.73861 81.6667 8.33333 81.6667C12.9281 81.6667 16.6667 77.9281 16.6667 73.3333C16.6667 70.8097 15.5151 68.5718 13.7386 67.0435L16.7936 61.5519C19.3001 62.6864 22.0736 63.3333 25 63.3333C29.5736 63.3333 33.7801 61.7733 37.1533 59.1797L43.7134 66.3965C40.3866 69.9699 38.3333 74.7437 38.3333 80C38.3333 81.0197 38.4351 82.0133 38.5815 82.9915L30.8634 84.8234C29.5353 81.9832 26.6699 80 23.3333 80C18.7386 80 15 83.7386 15 88.3333C15 92.9281 18.7386 96.6667 23.3333 96.6667C27.9281 96.6667 31.6667 92.9281 31.6667 88.3333C31.6667 88.2414 31.6414 88.1551 31.6398 88.0631L39.3433 86.237C41.9702 94.2179 49.4832 100 58.3333 100C69.362 100 78.3333 91.0286 78.3333 80C78.3333 76.5804 77.4683 73.3602 75.9481 70.5436L85.7381 64.1781C87.2518 65.7113 89.3481 66.6667 91.6667 66.6667C96.2614 66.6667 100 62.9281 100 58.3333C100 53.7386 96.2614 50 91.6667 50C87.0719 50 83.3333 53.7386 83.3333 58.3333C83.3333 59.41 83.5547 60.4329 83.9282 61.3786L74.1154 67.758C72.1517 65.2336 69.6021 63.195 66.6667 61.8416L74.8014 39.2904C76.4616 39.738 78.1999 40 80 40ZM48.3333 13.3333C45.577 13.3333 43.3333 11.0897 43.3333 8.33333C43.3333 5.57699 45.577 3.33333 48.3333 3.33333C51.0897 3.33333 53.3333 5.57699 53.3333 8.33333C53.3333 11.0897 51.0897 13.3333 48.3333 13.3333ZM3.33333 8.33333C3.33333 5.57699 5.57699 3.33333 8.33333 3.33333C11.0897 3.33333 13.3333 5.57699 13.3333 8.33333C13.3333 11.0897 11.0897 13.3333 8.33333 13.3333C5.57699 13.3333 3.33333 11.0897 3.33333 8.33333ZM8.33333 78.3333C5.57699 78.3333 3.33333 76.0897 3.33333 73.3333C3.33333 70.577 5.57699 68.3333 8.33333 68.3333C11.0897 68.3333 13.3333 70.577 13.3333 73.3333C13.3333 76.0897 11.0897 78.3333 8.33333 78.3333ZM23.3333 93.3333C20.577 93.3333 18.3333 91.0897 18.3333 88.3333C18.3333 85.577 20.577 83.3333 23.3333 83.3333C26.0897 83.3333 28.3333 85.577 28.3333 88.3333C28.3333 91.0897 26.0897 93.3333 23.3333 93.3333ZM91.6667 53.3333C94.423 53.3333 96.6667 55.577 96.6667 58.3333C96.6667 61.0897 94.423 63.3333 91.6667 63.3333C88.9103 63.3333 86.6667 61.0897 86.6667 58.3333C86.6667 55.577 88.9103 53.3333 91.6667 53.3333ZM70.1847 33.4399C70.9285 29.585 74.327 26.6667 78.3333 26.6667H81.6667C85.673 26.6667 89.0714 29.585 89.8153 33.4399C87.0581 35.4582 83.6719 36.6667 80 36.6667C76.3281 36.6667 72.9419 35.4582 70.1847 33.4399ZM80 23.3333C77.2437 23.3333 75 21.0897 75 18.3333C75 15.577 77.2437 13.3333 80 13.3333C82.7563 13.3333 85 15.577 85 18.3333C85 21.0897 82.7563 23.3333 80 23.3333ZM80 3.33333C89.1903 3.33333 96.6667 10.8097 96.6667 20C96.6667 24.1667 95.118 27.9736 92.5798 30.8984C91.4119 27.8231 88.9771 25.3687 85.9432 24.1569C87.4186 22.653 88.3333 20.5998 88.3333 18.3333C88.3333 13.7386 84.5947 10 80 10C75.4053 10 71.6667 13.7386 71.6667 18.3333C71.6667 20.5998 72.5814 22.653 74.0568 24.1569C71.0229 25.3687 68.5881 27.8231 67.4202 30.8984C64.882 27.9736 63.3333 24.1667 63.3333 20C63.3333 10.8097 70.8097 3.33333 80 3.33333ZM8.33333 43.3333C8.33333 34.1431 15.8097 26.6667 25 26.6667C34.1903 26.6667 41.6667 34.1431 41.6667 43.3333C41.6667 47.513 40.1082 51.3298 37.557 54.2586C36.3932 51.1719 33.9534 48.7052 30.9115 47.4902C32.3853 45.9863 33.3 43.9331 33.3 41.6667C33.3 37.0719 29.5614 33.3333 24.9666 33.3333C20.3719 33.3333 16.6333 37.0719 16.6333 41.6667C16.6333 43.9331 17.548 45.9863 19.0234 47.4902C15.9985 48.6963 13.5669 51.1418 12.395 54.2049C9.87142 51.2834 8.33333 47.4886 8.33333 43.3333ZM19.9666 41.6667C19.9666 38.9103 22.2103 36.6667 24.9666 36.6667C27.723 36.6667 29.9666 38.9103 29.9666 41.6667C29.9666 44.423 27.723 46.6667 24.9666 46.6667C22.2103 46.6667 19.9666 44.423 19.9666 41.6667ZM15.1571 56.7513C15.9082 52.9069 19.3018 50 23.3 50H26.6333C30.647 50 34.0519 52.9281 34.7852 56.7952C32.0337 58.8013 28.658 60 25 60C21.3151 60 17.9183 58.7834 15.1571 56.7513ZM48.4904 93.418C49.2415 89.5736 52.6351 86.6667 56.6333 86.6667H59.9666C63.9803 86.6667 67.3853 89.5947 68.1185 93.4619C65.367 95.4679 61.9914 96.6667 58.3333 96.6667C54.6484 96.6667 51.2516 95.45 48.4904 93.418ZM58.3 83.3333C55.5436 83.3333 53.3 81.0897 53.3 78.3333C53.3 75.577 55.5436 73.3333 58.3 73.3333C61.0563 73.3333 63.3 75.577 63.3 78.3333C63.3 81.0897 61.0563 83.3333 58.3 83.3333ZM75 80C75 84.1797 73.4416 87.9964 70.8903 90.9253C69.7266 87.8385 67.2868 85.3719 64.2448 84.1569C65.7186 82.653 66.6333 80.5998 66.6333 78.3333C66.6333 73.7386 62.8947 70 58.3 70C53.7052 70 49.9666 73.7386 49.9666 78.3333C49.9666 80.5998 50.8813 82.653 52.3568 84.1569C49.3319 85.363 46.9002 87.8084 45.7284 90.8716C43.2048 87.95 41.6667 84.1553 41.6667 80C41.6667 70.8097 49.1431 63.3333 58.3333 63.3333C67.5236 63.3333 75 70.8097 75 80ZM63.5319 60.7096C61.8717 60.262 60.1335 60 58.3333 60C53.7598 60 49.5532 61.5601 46.18 64.1536L39.62 56.9368C42.9468 53.3634 45 48.5897 45 43.3333C45 41.1499 44.637 39.0535 43.9868 37.085L62.3169 29.3164C64.3701 33.1982 67.6652 36.3135 71.6683 38.1584L63.5319 60.7096Z" />
</svg>
