<svg width="300" height="300" viewBox="0 0 300 300" fill="none" xmlns="http://www.w3.org/2000/svg">
<path d="M291.325 149.905C291.325 228.01 228.009 291.326 149.904 291.326C71.7995 291.326 8.48309 228.01 8.48309 149.905C8.48309 71.8001 71.7995 8.48376 149.904 8.48376C228.009 8.48376 291.325 71.8001 291.325 149.905Z" fill="white"/>
<path d="M200.603 200.602C204.726 204.725 211.538 204.66 215.741 200.457L227.202 188.996C228.54 187.658 230.803 188.394 231.163 190.282C231.891 193.303 233.567 196.125 236.577 197.988C241.089 200.972 246.953 201.105 251.332 198.225C258.948 193.233 259.612 183.199 253.802 177.389C251.928 175.515 249.855 174.589 247.592 173.854C245.703 173.493 244.968 171.23 246.496 169.702L257.958 158.24C262.161 154.037 262.226 147.225 258.103 143.102L244.984 129.983C243.672 128.671 241.394 129.45 240.998 131.346C240.212 134.381 238.482 137.235 235.436 139.156C230.866 142.227 224.998 142.473 220.673 139.676C213.339 135.016 212.68 124.805 218.602 118.883C220.512 116.973 222.602 116.007 224.88 115.228C226.585 115.023 227.364 112.745 226.052 111.433L214.807 100.188C210.684 96.0652 203.872 96.1303 199.669 100.333L150.001 150.001L200.603 200.602Z" fill="#F1592A"/>
<path d="M99.3994 200.601C95.2763 204.724 95.3414 211.536 99.5441 215.739L111.006 227.2C112.343 228.537 111.608 230.801 109.719 231.161C106.699 231.889 103.877 233.565 102.014 236.575C99.0294 241.087 98.8963 246.951 101.776 251.33C106.768 258.946 116.802 259.61 122.612 253.8C124.486 251.926 125.413 249.853 126.148 247.59C126.508 245.701 128.772 244.966 130.3 246.494L141.762 257.956C145.964 262.159 152.776 262.224 156.899 258.101L170.018 244.982C171.33 243.67 170.552 241.392 168.656 240.995C165.621 240.21 162.766 238.479 160.845 235.434C157.774 230.864 157.529 224.996 160.326 220.671C164.986 213.337 175.196 212.677 181.118 218.599C183.029 220.509 183.995 222.6 184.773 224.878C184.979 226.583 187.257 227.361 188.569 226.049L199.813 214.805C203.936 210.681 203.871 203.869 199.669 199.667L150.001 149.999L99.3994 200.601Z" fill="#8CC63F"/>
<path d="M200.598 99.3971C204.722 95.274 204.657 88.462 200.454 84.2594L188.992 72.7977C187.655 71.4604 188.39 69.197 190.279 68.8367C193.299 68.1087 196.121 66.4328 197.984 63.4234C200.968 58.911 201.102 53.0469 198.222 48.6677C193.23 41.0519 183.196 40.3884 177.386 46.1982C175.512 48.0723 174.585 50.1447 173.85 52.4081C173.49 54.2967 171.226 55.0319 169.698 53.5037L158.236 42.0419C154.034 37.8393 147.222 37.7742 143.099 41.8973L129.98 55.0162C128.668 56.3281 129.446 58.606 131.342 59.0025C134.377 59.7884 137.232 61.5185 139.153 64.5641C142.224 69.1343 142.469 75.002 139.672 79.327C135.012 86.6614 124.801 87.3207 118.88 81.3987C116.969 79.4885 116.003 77.398 115.225 75.1201C115.019 73.4153 112.741 72.6367 111.429 73.9486L100.185 85.1934C96.0615 89.3165 96.1266 96.1285 100.329 100.331L149.997 149.999L200.598 99.3971Z" fill="#57B7DF"/>
<path d="M99.399 99.3959C95.2759 95.2728 88.464 95.3379 84.2613 99.5405L72.7995 111.002C71.4623 112.34 69.1989 111.604 68.8385 109.716C68.1106 106.695 66.4347 103.873 63.4253 102.01C58.9129 99.026 53.0488 98.8929 48.6696 101.773C41.0537 106.765 40.3902 116.799 46.2 122.609C48.0741 124.483 50.1465 125.409 52.4099 126.144C54.2985 126.505 55.0337 128.768 53.5055 130.296L42.0437 141.758C37.841 145.961 37.7759 152.773 41.899 156.896L55.0179 170.015C56.3298 171.327 58.6077 170.548 59.0042 168.652C59.79 165.617 61.5202 162.763 64.5658 160.842C69.136 157.771 75.0037 157.525 79.3287 160.322C86.6631 164.982 87.3223 175.193 81.4004 181.115C79.4901 183.025 77.3996 183.991 75.1217 184.77C73.4169 184.975 72.6383 187.253 73.9502 188.565L85.195 199.81C89.318 203.933 96.13 203.868 100.333 199.665L150 149.997C149.971 150.026 150 149.997 149.971 150.026L99.399 99.3959Z" fill="#F7941E"/>
</svg>
