<svg viewBox="0 0 100 100" fill="none" xmlns="http://www.w3.org/2000/svg">
<path d="M50 24.6094C48.922 24.6094 48.0469 25.4845 48.0469 26.5625C48.0469 27.6405 48.922 28.5156 50 28.5156C51.078 28.5156 51.9531 27.6405 51.9531 26.5625C51.9531 25.4845 51.078 24.6094 50 24.6094Z" fill="#8CC63F"/>
<path d="M17.5781 59.7656C18.6562 59.7656 19.5312 58.8905 19.5312 57.8125C19.5312 56.7345 18.6562 55.8594 17.5781 55.8594C16.5001 55.8594 15.625 56.7345 15.625 57.8125C15.625 58.8905 16.5001 59.7656 17.5781 59.7656Z" fill="#8CC63F"/>
<path d="M65.625 5.07812C48.0415 5.07812 33.6098 17.2012 32.4936 32.4715C15.7478 33.3115 0 45.3865 0 61.7188C0 68.544 2.70081 75.1572 7.61719 80.397C8.58994 84.407 7.40891 88.6574 4.47845 91.5878C3.91998 92.1463 3.7529 92.9863 4.05502 93.7164C4.35715 94.4458 5.06897 94.9219 5.85938 94.9219C11.4296 94.9219 16.7976 92.7376 20.7863 88.8885C24.6719 90.213 29.7417 91.0156 34.375 91.0156C51.9562 91.0156 66.3864 78.8956 67.5056 63.6284C71.595 63.4468 75.8484 62.6915 79.2137 61.5448C83.2024 65.3938 88.5704 67.5781 94.1406 67.5781C94.931 67.5781 95.6429 67.1021 95.945 66.3727C96.2471 65.6425 96.08 64.8026 95.5215 64.2441C92.5911 61.3136 91.4101 57.0633 92.3828 53.0533C97.2992 47.8134 100 41.2003 100 34.375C100 17.4049 83.0391 5.07812 65.625 5.07812ZM34.375 87.1094C29.7653 87.1094 24.5125 86.2045 20.9938 84.8045C20.24 84.5039 19.3787 84.7015 18.8301 85.3004C16.4719 87.8784 13.4056 89.6759 10.0647 90.5022C11.9057 86.9751 12.3756 82.8171 11.2556 78.8773C11.1671 78.5667 11.0031 78.2829 10.778 78.0518C6.34689 73.4879 3.90625 67.6872 3.90625 61.7188C3.90625 47.9553 17.8589 36.3281 34.375 36.3281C49.971 36.3281 63.6719 47.1733 63.6719 61.7188C63.6719 75.7195 50.5295 87.1094 34.375 87.1094ZM89.222 50.708C88.9969 50.9399 88.8329 51.2238 88.7444 51.5335C87.6244 55.4733 88.0943 59.6313 89.9353 63.1584C86.5944 62.3329 83.5281 60.5347 81.1699 57.9567C80.6213 57.3586 79.76 57.1602 79.0062 57.4608C75.9567 58.6739 71.6064 59.5139 67.4995 59.7168C66.9289 52.3308 63.2446 45.3888 56.9458 40.2344H82.4219C83.5007 40.2344 84.375 39.36 84.375 38.2812C84.375 37.2025 83.5007 36.3281 82.4219 36.3281H50.9453C46.5118 34.0714 41.5337 32.7553 36.4098 32.4791C37.532 19.3611 50.2068 8.98438 65.625 8.98438C82.1411 8.98438 96.0938 20.6116 96.0938 34.375C96.0938 40.3435 93.6531 46.1441 89.222 50.708Z" fill="#8CC63F"/>
<path d="M50 55.8594H25.3906C24.3118 55.8594 23.4375 56.7337 23.4375 57.8125C23.4375 58.8913 24.3118 59.7656 25.3906 59.7656H50C51.0788 59.7656 51.9531 58.8913 51.9531 57.8125C51.9531 56.7337 51.0788 55.8594 50 55.8594Z" fill="#8CC63F"/>
<path d="M50 67.5781H17.5781C16.4993 67.5781 15.625 68.4525 15.625 69.5312C15.625 70.61 16.4993 71.4844 17.5781 71.4844H50C51.0788 71.4844 51.9531 70.61 51.9531 69.5312C51.9531 68.4525 51.0788 67.5781 50 67.5781Z" fill="#8CC63F"/>
<path d="M82.4219 24.6094H57.8125C56.7337 24.6094 55.8594 25.4837 55.8594 26.5625C55.8594 27.6413 56.7337 28.5156 57.8125 28.5156H82.4219C83.5007 28.5156 84.375 27.6413 84.375 26.5625C84.375 25.4837 83.5007 24.6094 82.4219 24.6094Z" fill="#8CC63F"/>
</svg>
