<svg width="50" height="48" viewBox="0 0 50 48" fill="none" xmlns="http://www.w3.org/2000/svg">
<ellipse cx="25" cy="23.6994" rx="24.5494" ry="23.6994" fill="#2A5885"/>
<g clip-path="url(#clip0)">
<path d="M30.6072 11.5632C31.8914 11.6202 32.7792 11.8024 33.5995 12.1098C34.3773 12.3906 35.0814 12.8333 35.6618 13.4066C36.2556 13.9669 36.7143 14.6467 37.0051 15.3975C37.3235 16.1904 37.5122 17.0464 37.5713 18.2862C37.644 19.8232 37.6525 20.3647 37.6525 23.6992C37.6525 27.0337 37.644 27.5752 37.5713 29.1121C37.5122 30.3519 37.3235 31.2089 37.0051 32.0018C36.7141 32.7523 36.2555 33.4317 35.6618 33.9918C35.0814 34.565 34.3773 35.0078 33.5995 35.2885C32.7781 35.5959 31.8914 35.7781 30.6072 35.8351C29.0151 35.9053 28.4552 35.9135 25.0001 35.9135C21.5449 35.9135 20.984 35.9053 19.3929 35.8351C18.1087 35.7781 17.2209 35.5959 16.3996 35.2885C15.6222 35.0077 14.9184 34.5649 14.3383 33.9918C13.7445 33.4314 13.2858 32.7517 12.995 32.0008C12.6766 31.2079 12.4879 30.3519 12.4288 29.1121C12.3561 27.5772 12.3477 27.0357 12.3477 23.6992C12.3477 20.3636 12.3561 19.8211 12.4288 18.2862C12.4879 17.0464 12.6766 16.1894 12.995 15.3975C13.2858 14.6467 13.7445 13.9669 14.3383 13.4066C14.9184 12.8334 15.6222 12.3907 16.3996 12.1098C17.222 11.8024 18.1087 11.6202 19.3929 11.5632C20.9829 11.493 21.5438 11.4849 25.0001 11.4849C28.4552 11.4849 29.0172 11.493 30.6072 11.5632ZM25.0001 14.1995C21.5839 14.1995 21.0609 14.2066 19.5205 14.2748C18.5431 14.3176 17.9569 14.4377 17.4181 14.6402C16.9595 14.8133 16.6674 14.9965 16.3258 15.3252C15.9842 15.655 15.7944 15.937 15.6162 16.3797C15.4074 16.8989 15.282 17.4658 15.2377 18.4094C15.167 19.8964 15.1597 20.4013 15.1597 23.6992C15.1597 26.997 15.167 27.5019 15.2377 28.989C15.282 29.9325 15.4064 30.4985 15.6162 31.0176C15.7954 31.4614 15.9852 31.7433 16.3258 32.0731C16.6674 32.4029 16.9595 32.5861 17.4181 32.7581C17.9558 32.9596 18.5431 33.0808 19.5205 33.1235C21.062 33.1917 21.585 33.1988 25.0001 33.1988C28.4162 33.1988 28.9381 33.1917 30.4796 33.1235C31.457 33.0808 32.0432 32.9607 32.582 32.7581C33.0407 32.5851 33.3327 32.4019 33.6743 32.0731C34.016 31.7433 34.2057 31.4614 34.3839 31.0186C34.5927 30.4995 34.7182 29.9325 34.7624 28.989C34.8331 27.5009 34.8405 26.996 34.8405 23.6992C34.8405 20.4023 34.8331 19.8975 34.7624 18.4094C34.7182 17.4658 34.5937 16.8999 34.3839 16.3808C34.2348 15.9808 33.992 15.6196 33.6743 15.3252C33.3695 15.0186 32.9953 14.7841 32.581 14.6402C32.0432 14.4387 31.4559 14.3176 30.4786 14.2748C28.9381 14.2066 28.4152 14.1995 24.999 14.1995H25.0001ZM25.0001 30.0323C23.2602 30.0323 21.5915 29.365 20.3612 28.1774C19.131 26.9897 18.4398 25.3788 18.4398 23.6992C18.4398 22.0195 19.131 20.4087 20.3612 19.221C21.5915 18.0333 23.2602 17.3661 25.0001 17.3661C26.74 17.3661 28.4086 18.0333 29.6389 19.221C30.8692 20.4087 31.5603 22.0195 31.5603 23.6992C31.5603 25.3788 30.8692 26.9897 29.6389 28.1774C28.4086 29.365 26.74 30.0323 25.0001 30.0323ZM25.0001 27.3187C25.9944 27.3187 26.9481 26.9373 27.6512 26.2585C28.3544 25.5798 28.7494 24.6591 28.7494 23.6992C28.7494 22.7392 28.3544 21.8186 27.6512 21.1398C26.9481 20.461 25.9944 20.0797 25.0001 20.0797C24.0057 20.0797 23.052 20.461 22.3489 21.1398C21.6457 21.8186 21.2507 22.7392 21.2507 23.6992C21.2507 24.6591 21.6457 25.5798 22.3489 26.2585C23.052 26.9373 24.0057 27.3187 25.0001 27.3187ZM31.5603 18.7229C31.1874 18.7229 30.8298 18.5799 30.5661 18.3253C30.3025 18.0708 30.1543 17.7255 30.1543 17.3655C30.1543 17.0056 30.3025 16.6603 30.5661 16.4058C30.8298 16.1512 31.1874 16.0082 31.5603 16.0082C31.9332 16.0082 32.2908 16.1512 32.5545 16.4058C32.8182 16.6603 32.9663 17.0056 32.9663 17.3655C32.9663 17.7255 32.8182 18.0708 32.5545 18.3253C32.2908 18.5799 31.9332 18.7229 31.5603 18.7229Z" fill="white"/>
</g>
<defs>
<clipPath id="clip0">
<rect width="25.3048" height="24.4286" fill="white" transform="translate(12.3477 11.4849)"/>
</clipPath>
</defs>
</svg>
