<svg width="75" height="75" viewBox="0 0 75 75" fill="none" xmlns="http://www.w3.org/2000/svg">
<g id="NavBar Logo">
<path id="Ellipse 13" d="M72.831 37.4762C72.831 57.0024 57.0019 72.8315 37.4758 72.8315C17.9497 72.8315 2.12061 57.0024 2.12061 37.4762C2.12061 17.95 17.9497 2.12094 37.4758 2.12094C57.0019 2.12094 72.831 17.95 72.831 37.4762Z" fill="#F2F2F2"/>
<g id="Logo">
<path id="Vector" d="M50.1505 50.1505C51.1812 51.1813 52.8842 51.165 53.9349 50.1144L56.8003 47.2489C57.1346 46.9146 57.7005 47.0984 57.7906 47.5706C57.9726 48.3256 58.3915 49.0312 59.1439 49.497C60.272 50.243 61.738 50.2763 62.8328 49.5563C64.7368 48.3083 64.9026 45.7998 63.4502 44.3473C62.9817 43.8788 62.4636 43.6472 61.8977 43.4634C61.4256 43.3733 61.2418 42.8075 61.6238 42.4254L64.4893 39.56C65.5399 38.5093 65.5562 36.8063 64.5254 35.7755L61.2457 32.4958C60.9177 32.1678 60.3483 32.3625 60.2491 32.8365C60.0527 33.5951 59.6202 34.3088 58.8588 34.7891C57.7162 35.5568 56.2493 35.6181 55.168 34.919C53.3344 33.754 53.1696 31.2013 54.6501 29.7208C55.1277 29.2432 55.6503 29.0017 56.2198 28.8071C56.646 28.7557 56.8406 28.1862 56.5126 27.8583L53.7015 25.0471C52.6707 24.0163 50.9677 24.0326 49.917 25.0832L37.5001 37.5002L50.1505 50.1505Z" fill="#F1592A"/>
<path id="Vector_2" d="M24.8497 50.1502C23.8189 51.181 23.8352 52.884 24.8858 53.9346L27.7513 56.8001C28.0856 57.1344 27.9018 57.7002 27.4296 57.7903C26.6745 57.9723 25.969 58.3913 25.5032 59.1436C24.7572 60.2717 24.7239 61.7377 25.4439 62.8326C26.6919 64.7365 29.2004 64.9024 30.6528 63.4499C31.1214 62.9814 31.3529 62.4633 31.5367 61.8974C31.6268 61.4253 32.1927 61.2415 32.5747 61.6236L35.4402 64.489C36.4908 65.5397 38.1938 65.5559 39.2246 64.5252L42.5043 61.2454C42.8323 60.9174 42.6376 60.348 42.1637 60.2488C41.405 60.0524 40.6913 59.6199 40.2111 58.8585C39.4433 57.7159 39.382 56.249 40.0812 55.1677C41.2462 53.3341 43.7989 53.1693 45.2793 54.6498C45.7569 55.1274 45.9984 55.65 46.1931 56.2195C46.2444 56.6457 46.8139 56.8403 47.1419 56.5123L49.9531 53.7011C50.9838 52.6704 50.9676 50.9674 49.9169 49.9167L37.5 37.4998L24.8497 50.1502Z" fill="#8CC63F"/>
<path id="Vector_3" d="M50.1494 24.8493C51.1801 23.8185 51.1639 22.1155 50.1132 21.0649L47.2478 18.1994C46.9135 17.8651 47.0973 17.2993 47.5694 17.2092C48.3245 17.0272 49.03 16.6082 49.4958 15.8558C50.2419 14.7277 50.2751 13.2617 49.5552 12.1669C48.3072 10.263 45.7986 10.0971 44.3462 11.5495C43.8776 12.0181 43.6461 12.5362 43.4623 13.102C43.3722 13.5742 42.8063 13.758 42.4243 13.3759L39.5589 10.5105C38.5082 9.45982 36.8052 9.44355 35.7744 10.4743L32.4947 13.7541C32.1667 14.082 32.3614 14.6515 32.8353 14.7506C33.594 14.9471 34.3077 15.3796 34.788 16.141C35.5557 17.2836 35.617 18.7505 34.9178 19.8317C33.7528 21.6653 31.2001 21.8302 29.7197 20.3497C29.2421 19.8721 29.0006 19.3495 28.806 18.78C28.7546 18.3538 28.1851 18.1592 27.8571 18.4872L25.046 21.2984C24.0152 22.3291 24.0315 24.0321 25.0821 25.0828L37.499 37.4997L50.1494 24.8493Z" fill="#57B7DF"/>
<path id="Vector_4" d="M24.8495 24.849C23.8188 23.8182 22.1158 23.8345 21.0651 24.8851L18.1997 27.7506C17.8654 28.0849 17.2995 27.9011 17.2094 27.4289C17.0274 26.6739 16.6085 25.9684 15.8561 25.5025C14.728 24.7565 13.262 24.7232 12.1672 25.4432C10.2632 26.6912 10.0974 29.1998 11.5498 30.6522C12.0183 31.1207 12.5364 31.3523 13.1023 31.5361C13.5744 31.6262 13.7582 32.192 13.3762 32.5741L10.5107 35.4395C9.46007 36.4902 9.4438 38.1932 10.4746 39.224L13.7543 42.5037C14.0823 42.8317 14.6517 42.637 14.7509 42.1631C14.9473 41.4044 15.3798 40.6907 16.1412 40.2104C17.2838 39.4427 18.7507 39.3814 19.832 40.0806C21.6656 41.2456 21.8304 43.7982 20.3499 45.2787C19.8723 45.7563 19.3497 45.9978 18.7802 46.1924C18.354 46.2438 18.1594 46.8133 18.4873 47.1413L21.2985 49.9524C22.3293 50.9832 24.0323 50.9669 25.0829 49.9163L37.4999 37.4993C37.4926 37.5066 37.4999 37.4993 37.4926 37.5066L24.8495 24.849Z" fill="#F7941E"/>
</g>
</g>
</svg>
