<svg width="50" height="50" viewBox="0 0 50 50" fill="none" xmlns="http://www.w3.org/2000/svg">
<circle cx="25" cy="25" r="25" fill="#2A5885"/>
<path d="M36.4692 19.2538C36.4818 19.506 36.4865 19.7612 36.4865 20.0133C36.4865 27.779 30.5339 36.7307 19.6493 36.7307C16.3053 36.7307 13.1966 35.758 10.5769 34.0897C12.1264 34.2757 13.6976 34.1567 15.2008 33.7396C16.7039 33.3225 18.1095 32.6154 19.3373 31.6588C18.1026 31.6356 16.906 31.23 15.9149 30.4987C14.9238 29.7673 14.1877 28.7468 13.8095 27.5798C14.697 27.7446 15.6103 27.71 16.4825 27.4787C15.143 27.2091 13.9387 26.488 13.0736 25.4377C12.2084 24.3875 11.7357 23.0726 11.7354 21.7158V21.6427C12.5572 22.0965 13.4763 22.3489 14.4162 22.3788C13.1619 21.5487 12.2739 20.2746 11.9336 18.8167C11.5933 17.3588 11.8264 15.8269 12.5851 14.5337C14.071 16.349 15.9249 17.8338 18.0265 18.8915C20.128 19.9492 22.4302 20.5562 24.7835 20.6731C24.6817 20.2337 24.6307 19.7841 24.6314 19.3332C24.6314 18.562 24.7845 17.7983 25.0819 17.0858C25.3792 16.3733 25.815 15.726 26.3645 15.1807C26.9139 14.6354 27.5661 14.2029 28.284 13.9079C29.0018 13.613 29.7711 13.4612 30.548 13.4614C31.3577 13.4601 32.159 13.624 32.9022 13.9428C33.6454 14.2616 34.3147 14.7287 34.8686 15.3149C36.1935 15.0546 37.4642 14.5725 38.6264 13.8894C38.1844 15.2499 37.2596 16.4047 36.024 17.1389C37.1971 17.0008 38.3427 16.6892 39.4228 16.2145C38.6293 17.3948 37.629 18.4242 36.4692 19.2538V19.2538Z" fill="white"/>
</svg>
