<svg width="50" height="48" viewBox="0 0 50 48" fill="none" xmlns="http://www.w3.org/2000/svg">
<ellipse cx="24.5494" cy="23.6994" rx="24.5494" ry="23.6994" fill="#2A5885"/>
<path d="M35.8119 18.2523C35.8243 18.4913 35.8289 18.7332 35.8289 18.9722C35.8289 26.334 29.9835 34.8199 19.2951 34.8199C16.0114 34.8199 12.9587 33.8978 10.3862 32.3163C11.9078 32.4926 13.4507 32.3799 14.9268 31.9845C16.4028 31.5891 17.7831 30.9188 18.9887 30.0119C17.7763 29.9899 16.6013 29.6054 15.6281 28.9121C14.6548 28.2188 13.932 27.2514 13.5606 26.1451C14.432 26.3013 15.3289 26.2685 16.1854 26.0492C14.8701 25.7937 13.6874 25.1101 12.8379 24.1145C11.9883 23.1188 11.5241 21.8723 11.5239 20.5862V20.5169C12.3309 20.9471 13.2334 21.1863 14.1564 21.2147C12.9246 20.4277 12.0527 19.22 11.7185 17.8379C11.3843 16.4558 11.6132 15.0036 12.3583 13.7777C13.8174 15.4986 15.6379 16.9061 17.7016 17.9088C19.7652 18.9115 22.0259 19.4869 24.3368 19.5978C24.2368 19.1812 24.1867 18.755 24.1875 18.3275C24.1875 17.5964 24.3378 16.8725 24.6298 16.1971C24.9218 15.5216 25.3497 14.9079 25.8893 14.391C26.4288 13.8741 27.0693 13.4642 27.7742 13.1845C28.479 12.9049 29.2345 12.761 29.9974 12.7612C30.7925 12.76 31.5793 12.9153 32.3092 13.2176C33.039 13.5198 33.6963 13.9626 34.2402 14.5183C35.5412 14.2715 36.789 13.8145 37.9302 13.1669C37.4962 14.4567 36.588 15.5514 35.3747 16.2474C36.5267 16.1165 37.6516 15.8211 38.7123 15.371C37.9331 16.49 36.9508 17.4658 35.8119 18.2523Z" fill="white"/>
</svg>
